#!OML:ASF H:\Dans Jumps\Project 1\Capture day 1\Session 1\subject.ASF
:FULLY-SPECIFIED
:DEGREES
511
root 0.455102 17.5994 6.90088 7.84472 -3.36312 -2.06474
lowerback -3.97748 -1.10936 -0.528696
upperback 0.43433 -1.49243 1.42385
thorax 2.72792 -0.762874 1.66637
lowerneck -5.19189 -10.3813 -6.74905
upperneck 5.6183 -13.773 5.57949
head 3.7297 -6.79672 2.26468
rclavicle 1.36105e-014 -7.0817e-015
rhumerus -25.6893 -14.623 -81.7688
rradius 23.6859
rwrist 35.7802
rhand -19.1345 -26.4341
rfingers 7.12502
rthumb 7.17536 -56.2925
lclavicle 1.36105e-014 -7.0817e-015
lhumerus -29.5544 1.69268 87.8869
lradius 20.6553
lwrist 7.39565
lhand -26.4658 -4.3575
lfingers 7.12502
lthumb 0.0958647 25.6222
rfemur -13.4535 -1.50964 20.5174
rtibia 23.2224
rfoot -15.9915 1.82333
rtoes 13.0128
lfemur -11.3804 9.4959 -17.7412
ltibia 20.6989
lfoot -12.7717 8.18068
ltoes -0.739709
512
root 0.456301 17.5989 6.90352 7.82486 -3.39728 -2.07206
lowerback -4.00187 -1.11433 -0.522368
upperback 0.424491 -1.49947 1.42929
thorax 2.73172 -0.766295 1.66761
lowerneck -5.20603 -10.3889 -6.76449
upperneck 5.60988 -13.7828 5.60367
head 3.73382 -6.80087 2.27394
rclavicle -2.48294e-014 -8.00108e-015
rhumerus -25.6229 -14.5714 -81.7912
rradius 23.7261
rwrist 35.7104
rhand -19.1655 -26.4379
rfingers 7.12502
rthumb 7.1454 -56.2973
lclavicle -2.48294e-014 -8.00108e-015
lhumerus -29.4483 1.71261 87.8706
lradius 20.8012
lwrist 7.5688
lhand -26.3296 -3.8537
lfingers 7.12502
lthumb 0.227395 26.1259
rfemur -13.4188 -1.48992 20.5171
rtibia 23.209
rfoot -15.9913 1.83919
rtoes 13.0376
lfemur -11.3378 9.5044 -17.7347
ltibia 20.6931
lfoot -12.7825 8.20537
ltoes -0.72345
513
root 0.457655 17.5985 6.90636 7.80458 -3.43071 -2.07944
lowerback -4.02465 -1.11804 -0.512894
upperback 0.413674 -1.50494 1.43377
thorax 2.73344 -0.768864 1.66623
lowerneck -5.21201 -10.395 -6.78424
upperneck 5.60308 -13.7914 5.63316
head 3.73779 -6.80451 2.28618
rclavicle -2.56463e-014 -1.40392e-014
rhumerus -25.5612 -14.5329 -81.8067
rradius 23.755
rwrist 35.659
rhand -19.1982 -26.4351
rfingers 7.12502
rthumb 7.11387 -56.2955
lclavicle -2.56463e-014 -1.40392e-014
lhumerus -29.3524 1.74863 87.8516
lradius 20.9604
lwrist 7.71732
lhand -26.1763 -3.27952
lfingers 7.12502
lthumb 0.375458 26.6999
rfemur -13.3838 -1.47547 20.5162
rtibia 23.1977
rfoot -15.9931 1.85731
rtoes 13.0462
lfemur -11.2926 9.51652 -17.729
ltibia 20.6848
lfoot -12.7947 8.22661
ltoes -0.705723
514
root 0.459137 17.5981 6.90932 7.78395 -3.46182 -2.08437
lowerback -4.04749 -1.12182 -0.502628
upperback 0.403765 -1.51052 1.43624
thorax 2.73606 -0.771463 1.6623
lowerneck -5.21301 -10.3993 -6.80379
upperneck 5.5969 -13.7979 5.66529
head 3.74113 -6.80712 2.29967
rclavicle 2.86716e-014 -3.26007e-014
rhumerus -25.5023 -14.5033 -81.8191
rradius 23.7768
rwrist 35.6193
rhand -19.222 -26.4369
rfingers 7.12502
rthumb 7.09088 -56.2981
lclavicle 2.86716e-014 -3.26007e-014
lhumerus -29.261 1.79445 87.8306
lradius 21.0997
lwrist 7.81438
lhand -26.0583 -2.8178
lfingers 7.12502
lthumb 0.489444 27.1614
rfemur -13.3487 -1.46778 20.5123
rtibia 23.1888
rfoot -15.9965 1.87832
rtoes 13.0434
lfemur -11.2455 9.53091 -17.7264
ltibia 20.6739
lfoot -12.8077 8.24207
ltoes -0.690296
515
root 0.460709 17.5978 6.91244 7.7642 -3.49199 -2.0831
lowerback -4.07274 -1.12588 -0.496754
upperback 0.395322 -1.51619 1.4361
thorax 2.74159 -0.774177 1.6581
lowerneck -5.21291 -10.4017 -6.81886
upperneck 5.59066 -13.8023 5.69585
head 3.74353 -6.80864 2.31213
rclavicle 3.96638e-015 -2.03754e-015
rhumerus -25.4487 -14.4803 -81.8289
rradius 23.7957
rwrist 35.5917
rhand -19.2319 -26.4483
rfingers 7.12502
rthumb 7.08132 -56.3098
lclavicle 3.96638e-015 -2.03754e-015
lhumerus -29.1708 1.85236 87.8064
lradius 21.1992
lwrist 7.84859
lhand -26.0151 -2.6182
lfingers 7.12502
lthumb 0.531204 27.3609
rfemur -13.3155 -1.46683 20.501
rtibia 23.183
rfoot -16.0016 1.90437
rtoes 13.0404
lfemur -11.1982 9.54847 -17.7318
ltibia 20.6611
lfoot -12.8204 8.25426
ltoes -0.676755
516
root 0.4623 17.5975 6.91557 7.74607 -3.52056 -2.08033
lowerback -4.09923 -1.13 -0.491069
upperback 0.387397 -1.52193 1.43492
thorax 2.74832 -0.776925 1.65288
lowerneck -5.21372 -10.403 -6.82863
upperneck 5.58671 -13.8053 5.72196
head 3.7459 -6.80945 2.32224
rclavicle 4.7553e-015 5.96354e-016
rhumerus -25.401 -14.4626 -81.8365
rradius 23.8128
rwrist 35.5736
rhand -19.2346 -26.4658
rfingers 7.12502
rthumb 7.0787 -56.3275
lclavicle 4.7553e-015 5.96354e-016
lhumerus -29.0831 1.91444 87.7822
lradius 21.2451
lwrist 7.81475
lhand -26.0737 -2.77079
lfingers 7.12502
lthumb 0.474607 27.2084
rfemur -13.2857 -1.46824 20.4881
rtibia 23.1803
rfoot -16.0078 1.93024
rtoes 13.0338
lfemur -11.1524 9.56704 -17.7391
ltibia 20.6467
lfoot -12.832 8.26446
ltoes -0.662311
517
root 0.463931 17.5972 6.91866 7.7287 -3.5469 -2.07506
lowerback -4.12809 -1.13503 -0.486752
upperback 0.38272 -1.5288 1.43251
thorax 2.75977 -0.780286 1.64701
lowerneck -5.22204 -10.4028 -6.82876
upperneck 5.58702 -13.8061 5.74003
head 3.74942 -6.80911 2.32774
rclavicle 4.0257e-014 -7.35503e-015
rhumerus -25.3558 -14.4513 -81.8429
rradius 23.828
rwrist 35.5673
rhand -19.2299 -26.4819
rfingers 7.12502
rthumb 7.08326 -56.3434
lclavicle 4.0257e-014 -7.35503e-015
lhumerus -28.9918 1.97736 87.76
lradius 21.2699
lwrist 7.77294
lhand -26.1509 -2.99548
lfingers 7.12502
lthumb 0.39999 26.9839
rfemur -13.2585 -1.47247 20.4725
rtibia 23.1811
rfoot -16.0156 1.95652
rtoes 13.0274
lfemur -11.1079 9.58578 -17.7496
ltibia 20.6318
lfoot -12.8423 8.27257
ltoes -0.654996
518
root 0.465475 17.5969 6.92171 7.71193 -3.57303 -2.0705
lowerback -4.15793 -1.13942 -0.482155
upperback 0.380591 -1.53487 1.42975
thorax 2.77434 -0.783269 1.64063
lowerneck -5.23291 -10.4014 -6.82221
upperneck 5.58832 -13.8055 5.75398
head 3.75266 -6.80799 2.33072
rclavicle -2.8917e-014 1.92821e-014
rhumerus -25.3135 -14.4488 -81.8472
rradius 23.8409
rwrist 35.5704
rhand -19.2199 -26.4944
rfingers 7.12502
rthumb 7.09284 -56.3555
lclavicle -2.8917e-014 1.92821e-014
lhumerus -28.9009 2.04617 87.738
lradius 21.2805
lwrist 7.72179
lhand -26.2424 -3.27439
lfingers 7.12502
lthumb 0.311582 26.7051
rfemur -13.2334 -1.47336 20.4581
rtibia 23.1843
rfoot -16.0247 1.97934
rtoes 13.024
lfemur -11.0651 9.60437 -17.7588
ltibia 20.6179
lfoot -12.8509 8.28215
ltoes -0.650925
519
root 0.466964 17.5965 6.92466 7.69388 -3.59751 -2.06571
lowerback -4.18578 -1.14371 -0.477566
upperback 0.379849 -1.54081 1.427
thorax 2.78923 -0.786189 1.6343
lowerneck -5.24165 -10.3998 -6.81301
upperneck 5.59034 -13.8045 5.76376
head 3.75507 -6.80677 2.332
rclavicle 2.07202e-014 4.96962e-016
rhumerus -25.2736 -14.4552 -81.8472
rradius 23.8473
rwrist 35.5838
rhand -19.2101 -26.4962
rfingers 7.12502
rthumb 7.10232 -56.357
lclavicle 2.07202e-014 4.96962e-016
lhumerus -28.8142 2.12698 87.7157
lradius 21.282
lwrist 7.66236
lhand -26.335 -3.56695
lfingers 7.12502
lthumb 0.222225 26.4127
rfemur -13.2083 -1.47198 20.4439
rtibia 23.1899
rfoot -16.0359 1.99897
rtoes 13.0243
lfemur -11.0224 9.62188 -17.7678
ltibia 20.605
lfoot -12.8589 8.29155
ltoes -0.647826
520
root 0.468419 17.596 6.92772 7.67443 -3.62231 -2.05936
lowerback -4.21288 -1.14689 -0.473612
upperback 0.380218 -1.54523 1.42331
thorax 2.80477 -0.788364 1.62744
lowerneck -5.24483 -10.3983 -6.80247
upperneck 5.5897 -13.8039 5.77188
head 3.75523 -6.80591 2.33283
rclavicle 4.85159e-015 1.14301e-015
rhumerus -25.2347 -14.4768 -81.8421
rradius 23.8455
rwrist 35.6118
rhand -19.2097 -26.4858
rfingers 7.12502
rthumb 7.1027 -56.3466
lclavicle 4.85159e-015 1.14301e-015
lhumerus -28.7301 2.21014 87.6952
lradius 21.2734
lwrist 7.6051
lhand -26.4243 -3.86251
lfingers 7.12502
lthumb 0.135959 26.1172
rfemur -13.1822 -1.47094 20.428
rtibia 23.1979
rfoot -16.05 2.01784
rtoes 13.0183
lfemur -10.9782 9.63774 -17.778
ltibia 20.5933
lfoot -12.8687 8.30143
ltoes -0.636941
521
root 0.46986 17.5954 6.93089 7.65308 -3.6473 -2.04914
lowerback -4.23838 -1.14925 -0.472796
upperback 0.380913 -1.54835 1.41866
thorax 2.81977 -0.789928 1.62148
lowerneck -5.23855 -10.397 -6.79274
upperneck 5.5834 -13.8035 5.77843
head 3.75152 -6.80548 2.33387
rclavicle 5.52559e-015 -2.67862e-014
rhumerus -25.1981 -14.5096 -81.8314
rradius 23.8353
rwrist 35.6472
rhand -19.2163 -26.4709
rfingers 7.12502
rthumb 7.09636 -56.3319
lclavicle 5.52559e-015 -2.67862e-014
lhumerus -28.6507 2.30127 87.6755
lradius 21.2569
lwrist 7.54354
lhand -26.5132 -4.17181
lfingers 7.12502
lthumb 0.0500395 25.8079
rfemur -13.1552 -1.47075 20.4077
rtibia 23.2085
rfoot -16.0666 2.03714
rtoes 13.011
lfemur -10.9321 9.65332 -17.7921
ltibia 20.5825
lfoot -12.8808 8.31023
ltoes -0.616723
522
root 0.471246 17.5948 6.93393 7.63077 -3.67077 -2.03559
lowerback -4.25922 -1.15122 -0.473949
upperback 0.380093 -1.55079 1.41271
thorax 2.83058 -0.791151 1.61543
lowerneck -5.22331 -10.3949 -6.78251
upperneck 5.57315 -13.8024 5.78349
head 3.74446 -6.80487 2.33496
rclavicle 1.6934e-014 1.87355e-014
rhumerus -25.1673 -14.5506 -81.8168
rradius 23.8234
rwrist 35.6823
rhand -19.2175 -26.4636
rfingers 7.12502
rthumb 7.09521 -56.3247
lclavicle 1.6934e-014 1.87355e-014
lhumerus -28.5744 2.3962 87.6563
lradius 21.2306
lwrist 7.47935
lhand -26.5964 -4.4641
lfingers 7.12502
lthumb -0.0302341 25.5156
rfemur -13.1289 -1.4702 20.3843
rtibia 23.2215
rfoot -16.0833 2.05409
rtoes 13.0042
lfemur -10.8861 9.66664 -17.8092
ltibia 20.5724
lfoot -12.8944 8.31699
ltoes -0.588711
523
root 0.47255 17.5942 6.93685 7.61018 -3.69531 -2.02212
lowerback -4.27772 -1.15225 -0.475614
upperback 0.377775 -1.55195 1.40723
thorax 2.83851 -0.791723 1.61031
lowerneck -5.20091 -10.3918 -6.77061
upperneck 5.55841 -13.8001 5.78518
head 3.73388 -6.80394 2.33522
rclavicle 1.48157e-015 1.80894e-014
rhumerus -25.1453 -14.5976 -81.7983
rradius 23.8123
rwrist 35.7149
rhand -19.2164 -26.4669
rfingers 7.12502
rthumb 7.09627 -56.3279
lclavicle 1.48157e-015 1.80894e-014
lhumerus -28.5007 2.49632 87.638
lradius 21.1959
lwrist 7.40919
lhand -26.6799 -4.73551
lfingers 7.12502
lthumb -0.110964 25.2442
rfemur -13.1061 -1.46377 20.3615
rtibia 23.2362
rfoot -16.0989 2.06689
rtoes 13.0046
lfemur -10.8435 9.67904 -17.8261
ltibia 20.5639
lfoot -12.9063 8.32466
ltoes -0.556421
524
root 0.473685 17.5937 6.93951 7.59219 -3.7199 -2.01093
lowerback -4.2927 -1.15179 -0.477058
upperback 0.372781 -1.55113 1.40331
thorax 2.84168 -0.79129 1.60689
lowerneck -5.16995 -10.389 -6.7581
upperneck 5.53919 -13.7982 5.78392
head 3.71978 -6.80343 2.33493
rclavicle 2.75193e-015 6.70898e-015
rhumerus -25.1376 -14.6426 -81.7763
rradius 23.8099
rwrist 35.7315
rhand -19.2133 -26.4805
rfingers 7.12502
rthumb 7.0993 -56.3415
lclavicle 2.75193e-015 6.70898e-015
lhumerus -28.4306 2.59486 87.6234
lradius 21.1547
lwrist 7.3375
lhand -26.7619 -4.99312
lfingers 7.12502
lthumb -0.19015 24.9865
rfemur -13.088 -1.44983 20.3423
rtibia 23.2518
rfoot -16.1122 2.07214
rtoes 13.0058
lfemur -10.8072 9.69109 -17.8399
ltibia 20.5585
lfoot -12.9162 8.33315
ltoes -0.530303
525
root 0.474699 17.5932 6.94195 7.57662 -3.74393 -2.00573
lowerback -4.30629 -1.15 -0.474116
upperback 0.367461 -1.54884 1.4019
thorax 2.84364 -0.790068 1.60374
lowerneck -5.13627 -10.3864 -6.74527
upperneck 5.51746 -13.7964 5.78008
head 3.70402 -6.80315 2.33392
rclavicle -6.59406e-015 1.08338e-014
rhumerus -25.1401 -14.6905 -81.7511
rradius 23.8133
rwrist 35.739
rhand -19.2143 -26.4923
rfingers 7.12502
rthumb 7.09827 -56.3533
lclavicle -6.59406e-015 1.08338e-014
lhumerus -28.3633 2.69237 87.6132
lradius 21.1133
lwrist 7.26743
lhand -26.8391 -5.21054
lfingers 7.12502
lthumb -0.264678 24.769
rfemur -13.0735 -1.42982 20.3308
rtibia 23.267
rfoot -16.1226 2.07112
rtoes 13.0074
lfemur -10.7774 9.70152 -17.8466
ltibia 20.5581
lfoot -12.925 8.34338
ltoes -0.51045
